<?xml version="1.0" encoding="UTF-8"?>
<svg id="_レイヤー_1" data-name="レイヤー 1" xmlns="http://www.w3.org/2000/svg" viewBox="0 0 47.7 47.81">
  <defs>
    <style>
      .cls-1 {
        fill: #363738;
      }

      .cls-2 {
        fill: #b3b9ae;
      }

      .cls-3 {
        fill: #fff;
      }

      .cls-4 {
        fill: #1e1e1c;
      }
    </style>
  </defs>
  <g id="_生成オブジェクト" data-name="生成オブジェクト">
    <path class="cls-1" d="M37.02,43.77c-.13-.15-.74-1.31-.74-1.39,0-.01.15-.17.19-.22.33-.44,1.89-1.47,2.45-1.98C54.32,25.95,43.19.32,22.2,1.62,2.96,2.81-5.56,26.98,8.7,40.18c.46.42,2.39,1.78,2.57,2.04.22.32-.36,1.24-.43,1.67C-8.74,31.04-.07.64,23.13,0c23.9-.64,33.85,30.4,13.9,43.76Z"/>
    <path class="cls-3" d="M36.47,42.16c-.46.09-.53-.85-.87-1.08.07-.25.23.18.28.15.11-.06-.47-1.52-.59-1.7l.28.22c.11.02,0-.48-.03-.59-.08-.29-1.57-2.91-1.39-3,.08-.04.39.43.4.15-.25-.63-.55-1.27-.74-1.92-.06-.22-.63-2.27-.53-2.32.06-.03.16.32.28.22l-.8-1.73.28.22c-.11-.76-.55-1.54-1.15-2.07.78.38,1.4,1.04,2.01,1.64-.02-.54-1.98-1.69-2.01-1.83-.01-.06.1-.23.15-.28.28-.09,1.19.55,1.49.68,0-.31-1.29-.67-1.27-.84.15-.17.41-.08.59-.03,1.15.32,2.74,1.65,3.78,2.29-.35-.44-.99-.87-1.49-1.18-.33-.21-2.23-1.08-2.26-1.21,0-.02.22-.38.28-.4.96-.29,4.89,2.39,5.73,3.13-1.57-1.53-3.53-2.65-5.63-3.28.02-.42.26-.32.59-.28.9.11,1.98.77,2.88.96l-3.28-1.11s.07-.44.15-.46c.28-.09,1.85.47,2.26.46l-2.29-.62.15-.77.34.46-.25-2.29.4.65c.36-1.03.06-2.3-.65-3.13l.43.12c-.32-.76-.8-1.43-.68-2.29.06-.44.49-1,.56-1.49.09-.65-.03-1.38.06-2.04.27-1.9.88-3.88.62-5.82-.63-4.68-5.17,1.84-6.31,2.97-1.5,1.48-2.35.95-4.12.96-1.18,0-2,.31-3.22-.06-1.14-.35-2.64-2.58-3.56-3.5-1.55-1.55-3.79-3.79-4.09.06-.14,1.8.38,3.51.62,5.26.1.7-.03,1.52.06,2.17.06.45.5,1.03.56,1.42.13.89-.38,1.55-.68,2.35l.37-.06c-.74.9-.84,1.97-.68,3.09l.43-.56-.19,2.1c.45-1,.61.16.5.37-.06.11-2.34.41-2.29.62.31.02,2.79-.9,2.41-.06-.08.17-3.11.75-3.47,1.24.64-.12,2.99-1.24,3.5-1.08.06.02.19.29.15.34s-1.07.32-1.27.4c-1.34.58-2.66,1.33-3.74,2.32.83-.46,1.54-1.13,2.38-1.58.37-.2,2.31-1.06,2.6-1.05.24,0,.39.28.37.5-1.36.59-2.8,1.34-3.84,2.41l4.15-2.6.31.37-2.75,1.76c.51-.3,2.47-1.83,3-1.7.65.16-.9.99-1.11,1.18-.24.2-.65.6-.84.84-.02.03-.35.39-.15.4.62-.79,1.39-1.54,2.32-1.95-.49.55-1.01,1.22-1.08,1.95l.4-.28-.87,1.73.31-.12-1.49,4.58.4-.28c.44-.01-1.26,2.32-1.33,2.51-.08.21-.12.46-.19.68l.43-.31c-.16.22-.84,1.87-.71,1.95.02.01.37-.57.28-.15-.02.08-.7,1.28-.87,1.27-.18-.26-2.11-1.62-2.57-2.04C-5.56,26.98,2.96,2.81,22.2,1.62c20.99-1.3,32.13,24.33,16.71,38.56-.55.51-2.12,1.54-2.45,1.98Z"/>
    <g>
      <path class="cls-4" d="M36.47,42.16s-.19.2-.19.22c0,.08.61,1.24.74,1.39-7.97,5.34-18.17,5.38-26.18.12.08-.44.65-1.36.43-1.67.17,0,.85-1.19.87-1.27.09-.41-.25.17-.28.15-.13-.08.55-1.73.71-1.95l-.43.31c.06-.22.1-.47.19-.68.07-.18,1.77-2.52,1.33-2.51l-.4.28,1.49-4.58-.31.12.87-1.73-.4.28c.07-.73.59-1.4,1.08-1.95-.93.41-1.7,1.16-2.32,1.95-.2-.01.13-.38.15-.4.19-.24.6-.63.84-.84.22-.19,1.77-1.01,1.11-1.18-.53-.13-2.49,1.4-3,1.7l2.75-1.76-.31-.37-4.15,2.6c1.04-1.08,2.48-1.82,3.84-2.41.01-.21-.13-.49-.37-.5-.29,0-2.23.85-2.6,1.05-.84.45-1.55,1.12-2.38,1.58,1.09-.99,2.4-1.74,3.74-2.32.2-.08,1.23-.35,1.27-.4s-.09-.32-.15-.34c-.5-.16-2.86.96-3.5,1.08.35-.49,3.39-1.07,3.47-1.24.38-.84-2.11.08-2.41.06-.05-.2,2.23-.5,2.29-.62.11-.21-.04-1.37-.5-.37l.19-2.1-.43.56c-.16-1.12-.06-2.19.68-3.09l-.37.06c.3-.8.81-1.46.68-2.35-.06-.39-.49-.98-.56-1.42-.09-.64.04-1.46-.06-2.17-.24-1.76-.76-3.46-.62-5.26.3-3.86,2.54-1.62,4.09-.06.92.92,2.41,3.15,3.56,3.5,1.21.37,2.04.07,3.22.06,1.77-.01,2.62.52,4.12-.96,1.14-1.13,5.68-7.66,6.31-2.97.26,1.94-.34,3.92-.62,5.82-.1.67.03,1.39-.06,2.04-.07.48-.49,1.04-.56,1.49-.12.86.37,1.53.68,2.29l-.43-.12c.71.83,1.01,2.1.65,3.13l-.4-.65.25,2.29-.34-.46-.15.77,2.29.62c-.41,0-1.98-.55-2.26-.46-.08.03-.19.41-.15.46l3.28,1.11c-.9-.19-1.98-.85-2.88-.96-.33-.04-.57-.14-.59.28,2.1.63,4.06,1.75,5.63,3.28-.83-.74-4.77-3.41-5.73-3.13-.06.02-.28.38-.28.4.03.13,1.93,1,2.26,1.21.49.31,1.14.73,1.49,1.18-1.04-.64-2.62-1.97-3.78-2.29-.18-.05-.44-.14-.59.03-.03.17,1.26.53,1.27.84-.3-.14-1.21-.77-1.49-.68-.06.05-.17.22-.15.28.03.13,1.99,1.29,2.01,1.83-.61-.6-1.23-1.26-2.01-1.64.59.53,1.03,1.31,1.15,2.07l-.28-.22.8,1.73c-.12.11-.22-.24-.28-.22-.11.05.46,2.1.53,2.32.19.64.49,1.29.74,1.92,0,.28-.32-.2-.4-.15-.17.09,1.31,2.71,1.39,3,.03.11.14.61.03.59l-.28-.22c.12.19.7,1.64.59,1.7-.05.03-.21-.41-.28-.15.33.23.41,1.17.87,1.08Z"/>
      <path class="cls-3" d="M19.04,20c.9-.14,2.06.2,2.38,1.15.11.32.28,1.22-.09,1.33-.56.17-1.75-.12-2.23-.5-.62-.49-1.25-1.8-.06-1.98Z"/>
      <path class="cls-3" d="M27.83,20c1.22-.17,2.06.15,1.33,1.45-.52.94-1.92,1.18-2.88.96-.22-1.07.41-2.26,1.55-2.41Z"/>
      <polygon class="cls-2" points="32.6 27.8 32.69 27.83 32.6 27.93 32.57 27.9 32.6 27.8"/>
    </g>
  </g>
</svg>